<?xml version="1.0" encoding="utf-8" ?>
<svg xmlns="http://www.w3.org/2000/svg" xmlns:xlink="http://www.w3.org/1999/xlink" width="1024" height="1024">
	<path fill="#FEC86C" d="M516.369 161.347C533.522 162.05 550.203 163.037 567.164 165.911Q570.753 166.542 574.329 167.246Q577.904 167.95 581.465 168.727Q585.026 169.503 588.57 170.352Q592.114 171.201 595.64 172.122Q599.166 173.042 602.672 174.035Q606.179 175.027 609.665 176.09Q613.15 177.153 616.614 178.287Q620.077 179.421 623.517 180.625Q626.956 181.829 630.371 183.103Q633.785 184.377 637.173 185.72Q640.561 187.062 643.921 188.474Q647.281 189.885 650.611 191.365Q653.942 192.844 657.241 194.391Q660.541 195.938 663.808 197.552Q667.076 199.165 670.31 200.845Q673.544 202.525 676.743 204.27Q679.943 206.015 683.106 207.825Q686.269 209.635 689.395 211.508Q692.52 213.382 695.607 215.319Q698.694 217.256 701.741 219.255Q704.788 221.254 707.794 223.315Q710.799 225.376 713.762 227.497Q716.726 229.619 719.645 231.8Q722.564 233.981 725.439 236.221Q728.313 238.461 731.142 240.76Q733.97 243.058 736.751 245.413Q739.532 247.768 742.265 250.179Q744.997 252.59 747.68 255.056Q750.363 257.523 752.995 260.043Q755.628 262.563 758.208 265.136Q760.789 267.71 763.317 270.335Q765.844 272.96 768.318 275.636Q770.616 278.118 772.867 280.643Q775.117 283.168 777.318 285.736Q779.52 288.304 781.672 290.914Q783.823 293.524 785.925 296.174Q788.026 298.825 790.076 301.515Q792.126 304.205 794.124 306.934Q796.122 309.664 798.068 312.431Q800.013 315.198 801.905 318.002Q803.797 320.805 805.635 323.645Q807.472 326.485 809.255 329.359Q811.038 332.233 812.766 335.141Q814.493 338.049 816.165 340.99Q817.836 343.93 819.451 346.903Q821.066 349.875 822.623 352.877Q824.18 355.88 825.68 358.912Q827.179 361.944 828.62 365.004Q830.062 368.064 831.444 371.151Q832.826 374.238 834.148 377.351Q835.471 380.464 836.734 383.602Q837.996 386.74 839.198 389.902Q840.401 393.063 841.542 396.247Q842.683 399.431 843.763 402.637Q844.843 405.842 845.862 409.068Q846.88 412.293 847.836 415.538Q848.793 418.782 849.687 422.044Q850.581 425.306 851.412 428.585Q852.243 431.864 853.011 435.158Q853.779 438.452 854.484 441.76Q855.188 445.068 855.83 448.389Q856.471 451.71 857.048 455.043Q857.625 458.376 858.139 461.719Q858.652 465.063 859.101 468.415C861.302 484.778 862.117 501.155 862.405 517.652C836.891 515.868 811.438 513.296 785.885 512.067C784.929 499.349 784.44 486.836 782.568 474.177Q781.881 469.352 781.022 464.555Q780.164 459.758 779.136 454.994Q778.109 450.23 776.912 445.506Q775.716 440.782 774.353 436.103Q772.99 431.424 771.462 426.797Q769.934 422.169 768.242 417.599Q766.551 413.028 764.698 408.521Q762.845 404.013 760.834 399.574Q758.823 395.135 756.655 390.771Q754.488 386.406 752.167 382.121Q749.845 377.836 747.374 373.635Q744.902 369.435 742.283 365.326Q739.664 361.216 736.901 357.202Q734.137 353.187 731.233 349.274Q728.329 345.36 725.288 341.552Q722.247 337.744 719.073 334.046Q717.237 331.9 715.357 329.792Q713.477 327.684 711.554 325.615Q709.632 323.546 707.667 321.516Q705.703 319.487 703.697 317.498Q701.692 315.51 699.646 313.562Q697.6 311.615 695.515 309.71Q693.429 307.805 691.306 305.943Q689.182 304.081 687.02 302.263Q684.859 300.445 682.661 298.671Q680.462 296.898 678.228 295.169Q675.994 293.441 673.725 291.759Q671.457 290.077 669.154 288.442Q666.851 286.806 664.515 285.218Q662.179 283.63 659.811 282.091Q657.443 280.551 655.045 279.06Q652.646 277.569 650.217 276.127Q647.788 274.685 645.33 273.294Q642.873 271.902 640.387 270.561Q637.901 269.22 635.389 267.93Q632.876 266.64 630.337 265.402Q627.799 264.163 625.235 262.977Q622.672 261.791 620.085 260.658Q617.498 259.524 614.888 258.444Q612.278 257.364 609.647 256.337Q607.016 255.31 604.364 254.338Q601.713 253.365 599.042 252.447Q596.37 251.529 593.681 250.666Q590.992 249.802 588.286 248.994Q585.579 248.186 582.857 247.433Q580.134 246.681 577.397 245.984Q574.66 245.287 571.909 244.647Q569.158 244.006 566.395 243.422C550.388 240.131 534.196 238.725 517.926 237.534Q517.69 199.429 516.369 161.347Z"/>
	<path fill="#FEC86C" d="M160.637 504.916C186.856 506.78 213.054 510.363 239.204 513.068C237.791 581.197 268.875 654.003 315.671 702.896C352.903 741.797 397.929 767.987 450.181 781.037C466.257 785.053 483.171 788.13 499.776 788.462Q503.135 788.523 506.495 788.519L506.479 835.366C506.479 844.247 505.673 854.799 507.318 863.523C499.558 863.601 491.622 862.845 483.887 862.233C403.834 855.89 324.947 818.342 267.768 762.283Q265.112 759.691 262.511 757.044Q259.91 754.397 257.364 751.696Q254.819 748.996 252.33 746.242Q249.842 743.489 247.411 740.685Q244.981 737.88 242.61 735.025Q240.238 732.171 237.927 729.267Q235.616 726.363 233.366 723.412Q231.116 720.461 228.928 717.463Q226.74 714.466 224.615 711.423Q222.49 708.38 220.429 705.294Q218.368 702.208 216.372 699.079Q214.376 695.951 212.445 692.781Q210.515 689.611 208.651 686.402Q206.788 683.193 204.991 679.945Q203.195 676.698 201.467 673.413Q199.739 670.129 198.08 666.81Q196.421 663.49 194.831 660.136Q193.242 656.783 191.722 653.397Q190.203 650.011 188.755 646.594Q187.307 643.177 185.931 639.73Q184.554 636.284 183.25 632.81Q181.946 629.335 180.714 625.834Q179.483 622.333 178.325 618.807Q177.167 615.281 176.083 611.732Q174.999 608.183 173.989 604.612Q172.979 601.041 172.044 597.449Q171.109 593.858 170.249 590.247Q169.389 586.637 168.605 583.01Q167.82 579.383 167.112 575.74Q166.404 572.097 165.772 568.44Q165.139 564.783 164.584 561.113Q164.028 557.444 163.549 553.764C161.441 537.529 160.805 521.271 160.637 504.916Z"/>
	<path d="M511.002 122.374Q512.177 122.354 513.353 122.347Q518.128 122.37 522.9 122.51Q527.673 122.649 532.441 122.906Q537.209 123.162 541.969 123.535Q546.729 123.908 551.479 124.398Q556.228 124.887 560.965 125.493Q565.701 126.098 570.421 126.82Q575.141 127.541 579.842 128.378Q584.543 129.214 589.222 130.166Q593.901 131.117 598.555 132.183Q603.209 133.248 607.836 134.427Q612.463 135.607 617.06 136.899Q621.656 138.191 626.22 139.595Q630.784 140.999 635.311 142.515Q639.839 144.03 644.329 145.656Q648.818 147.282 653.266 149.017Q657.715 150.753 662.119 152.596Q666.524 154.44 670.882 156.391Q675.24 158.342 679.549 160.399Q683.858 162.455 688.115 164.617Q692.373 166.779 696.576 169.044Q700.779 171.31 704.925 173.677Q709.072 176.045 713.159 178.513Q717.247 180.981 721.272 183.549Q725.298 186.116 729.259 188.782Q733.221 191.447 737.116 194.209Q741.011 196.97 744.838 199.826Q748.664 202.682 752.42 205.631Q756.175 208.58 759.857 211.62Q763.539 214.659 767.146 217.788Q770.752 220.918 774.281 224.134Q777.81 227.35 781.26 230.652Q784.709 233.954 788.076 237.339C830.09 279.097 860.769 329.632 881.059 385.1C882.928 390.21 889.843 410.561 889.856 414.747C889.044 414.952 888.111 415.263 887.279 415.316C885.058 415.457 885.396 414.099 884.924 412.321Q881.706 399.97 877.555 387.902Q873.404 375.833 868.343 364.116Q866.509 359.771 864.571 355.472Q862.632 351.173 860.591 346.922Q858.549 342.671 856.405 338.471Q854.261 334.271 852.017 330.123Q849.772 325.976 847.428 321.884Q845.084 317.792 842.642 313.757Q840.2 309.723 837.661 305.749Q835.123 301.775 832.489 297.863Q829.855 293.952 827.127 290.105Q824.399 286.258 821.579 282.478Q818.759 278.698 815.849 274.987Q812.939 271.277 809.94 267.637Q806.941 263.998 803.855 260.432Q800.769 256.866 797.597 253.376Q794.426 249.886 791.172 246.473Q787.917 243.06 784.581 239.727C714.14 169.626 615.285 126.851 515.546 126.997C515.109 136.035 515.2 152.587 516.369 161.347Q517.69 199.429 517.926 237.534C534.196 238.725 550.388 240.131 566.395 243.422Q569.158 244.006 571.909 244.647Q574.66 245.287 577.397 245.984Q580.134 246.681 582.857 247.433Q585.579 248.186 588.286 248.994Q590.992 249.802 593.681 250.666Q596.37 251.529 599.042 252.447Q601.713 253.365 604.364 254.338Q607.016 255.31 609.647 256.337Q612.278 257.364 614.888 258.444Q617.498 259.524 620.085 260.658Q622.672 261.791 625.235 262.977Q627.799 264.163 630.337 265.402Q632.876 266.64 635.388 267.93Q637.901 269.22 640.387 270.561Q642.873 271.902 645.33 273.294Q647.788 274.685 650.217 276.127Q652.646 277.569 655.045 279.06Q657.443 280.551 659.811 282.091Q662.179 283.63 664.515 285.218Q666.851 286.806 669.154 288.442Q671.457 290.077 673.725 291.759Q675.994 293.441 678.228 295.169Q680.462 296.898 682.661 298.671Q684.859 300.445 687.02 302.263Q689.182 304.081 691.306 305.943Q693.429 307.805 695.515 309.71Q697.6 311.615 699.646 313.562Q701.692 315.51 703.697 317.498Q705.703 319.487 707.667 321.516Q709.632 323.546 711.554 325.615Q713.477 327.684 715.357 329.792Q717.237 331.9 719.073 334.046Q722.247 337.744 725.288 341.552Q728.329 345.36 731.233 349.274Q734.137 353.187 736.901 357.202Q739.664 361.216 742.283 365.326Q744.902 369.435 747.374 373.635Q749.845 377.836 752.167 382.121Q754.488 386.406 756.655 390.771Q758.823 395.135 760.834 399.574Q762.845 404.013 764.698 408.521Q766.551 413.028 768.242 417.599Q769.934 422.169 771.462 426.797Q772.99 431.424 774.353 436.103Q775.716 440.782 776.912 445.506Q778.109 450.23 779.136 454.994Q780.164 459.758 781.022 464.555Q781.881 469.352 782.568 474.177C784.44 486.836 784.929 499.349 785.885 512.067Q785.566 519.921 785.339 527.779Q826.334 533.127 867.225 539.224C878.606 540.86 890.071 543.034 901.496 544.221Q901.153 547.903 900.741 551.578Q900.329 555.254 899.85 558.92Q899.371 562.587 898.823 566.245Q898.276 569.902 897.662 573.549Q897.047 577.196 896.365 580.83Q895.683 584.465 894.934 588.087Q894.184 591.708 893.368 595.315Q892.552 598.922 891.67 602.513Q890.787 606.105 889.838 609.679Q888.889 613.253 887.875 616.81Q886.86 620.366 885.779 623.903Q884.699 627.439 883.553 630.956Q882.408 634.472 881.197 637.966Q879.987 641.461 878.712 644.932Q877.437 648.404 876.098 651.851Q874.759 655.298 873.357 658.72Q871.954 662.142 870.489 665.537Q869.023 668.933 867.495 672.3Q865.967 675.668 864.377 679.007Q862.787 682.346 861.136 685.655Q859.484 688.964 857.772 692.242Q856.059 695.519 854.286 698.765Q852.514 702.01 850.681 705.223Q848.849 708.435 846.957 711.613Q845.066 714.79 843.115 717.933Q841.165 721.075 839.158 724.18Q837.15 727.286 835.085 730.354Q833.02 733.422 830.899 736.451Q828.777 739.48 826.6 742.47Q824.423 745.459 822.191 748.408Q819.959 751.357 817.673 754.264Q815.387 757.171 813.048 760.035C803.077 772.342 791.036 787.139 778.772 797.106C777.831 797.87 776.878 798.51 775.818 799.096C774.403 798.918 774.4 798.861 773.39 797.839C773.207 796.442 773.108 796.256 774.017 795.074C776.542 791.795 782.675 786.677 785.966 783.35C794.474 774.749 802.7 765.926 810.29 756.498Q813.964 751.991 817.506 747.379Q821.047 742.768 824.452 738.054Q827.857 733.341 831.122 728.53Q834.388 723.719 837.512 718.814Q840.635 713.91 843.615 708.916Q846.594 703.922 849.425 698.844Q852.257 693.765 854.939 688.606Q857.621 683.447 860.151 678.212Q862.682 672.977 865.058 667.669Q867.434 662.362 869.654 656.988Q871.874 651.614 873.936 646.177Q875.997 640.74 877.9 635.246Q879.802 629.751 881.542 624.203Q883.283 618.655 884.861 613.058Q886.439 607.462 887.852 601.821Q889.266 596.181 890.514 590.502C893.49 576.337 894.899 562.133 896.918 547.843Q879.324 545.047 861.613 543.134C860.659 549.658 860.172 556.239 859.242 562.769Q856.578 581.403 851.772 599.603C831.001 678.881 780.477 749.226 715.021 797.918Q711.091 800.791 707.082 803.553Q703.073 806.315 698.988 808.963Q694.903 811.611 690.745 814.144Q686.588 816.676 682.36 819.09Q678.133 821.505 673.839 823.799Q669.546 826.094 665.189 828.267Q660.833 830.44 656.417 832.49Q652.002 834.539 647.53 836.464Q643.059 838.389 638.535 840.188Q634.011 841.986 629.438 843.657Q624.866 845.327 620.248 846.869Q615.63 848.41 610.971 849.821Q606.312 851.232 601.615 852.512Q596.918 853.791 592.186 854.938Q587.455 856.085 582.694 857.099Q577.932 858.113 573.144 858.992C559.368 861.471 545.413 862.015 531.635 864.191Q530.538 839.607 529.139 815.039C528.69 806.082 529.196 796.202 527.326 787.46C521.883 787.347 516.565 788.151 511.152 788.287C511.941 793.167 511.541 798.56 511.546 803.518L511.491 830.319L511.38 866.72C511.371 872.695 511.738 878.898 511.382 884.845C511.556 890.603 511.493 896.39 511.544 902.152C492.438 902.096 473.423 901.491 454.456 898.982C400.346 891.824 346.787 870.928 301.217 841.065Q297.959 838.954 294.744 836.779Q291.528 834.604 288.356 832.367Q285.184 830.129 282.057 827.83Q278.929 825.53 275.848 823.169Q272.766 820.808 269.732 818.387Q266.697 815.966 263.711 813.486Q260.725 811.005 257.788 808.467Q254.852 805.928 251.966 803.332Q249.079 800.736 246.245 798.084Q243.41 795.431 240.629 792.724Q237.847 790.016 235.119 787.254Q232.391 784.492 229.718 781.677Q227.045 778.862 224.428 775.995Q221.811 773.128 219.251 770.21Q216.691 767.292 214.189 764.324Q211.687 761.356 209.244 758.339Q206.801 755.322 204.418 752.258Q202.035 749.194 199.712 746.083Q197.39 742.973 195.129 739.817Q192.868 736.661 190.67 733.462Q188.472 730.262 186.337 727.02Q184.203 723.778 182.132 720.494Q180.062 717.211 178.056 713.887Q176.051 710.563 174.111 707.2Q172.172 703.838 170.299 700.438Q168.426 697.037 166.62 693.601Q164.815 690.165 163.077 686.693Q161.339 683.222 159.67 679.717Q158.001 676.212 156.402 672.675Q154.802 669.138 153.273 665.571Q151.743 662.003 150.284 658.406Q148.825 654.808 147.437 651.183C143.035 639.511 137.453 627.025 135.101 614.742C134.689 612.588 134.808 610.039 136.092 608.206L136.81 608.216C137.896 609.358 138.446 610.748 138.947 612.223C140.482 616.752 141.486 621.487 142.926 626.056C147.277 639.856 152.396 654.389 158.551 667.506C178.554 710.132 203.68 748.309 236.469 782.236C257.281 803.771 280.32 822.011 305.518 838.108C368.722 878.481 432.986 896.857 507.818 898.178C507.847 886.702 508.325 874.957 507.318 863.523C505.673 854.799 506.479 844.247 506.479 835.366L506.495 788.519Q503.135 788.523 499.776 788.462C483.171 788.13 466.257 785.053 450.181 781.037C397.929 767.987 352.903 741.797 315.671 702.896C268.875 654.003 237.791 581.197 239.204 513.068C239.999 508.199 239.602 502.507 239.808 497.546C224.256 494.74 208.183 493.361 192.477 491.395C168.972 488.452 145.519 485.205 121.967 482.636C124.338 463.872 126.78 445.532 131.052 427.06Q131.936 423.205 132.896 419.368Q133.857 415.531 134.894 411.715Q135.932 407.898 137.045 404.103Q138.158 400.307 139.348 396.535Q140.537 392.763 141.801 389.016Q143.066 385.268 144.405 381.546Q145.744 377.825 147.158 374.131Q148.571 370.437 150.058 366.772Q151.545 363.107 153.106 359.472Q154.666 355.838 156.298 352.235Q157.931 348.633 159.635 345.064Q161.34 341.495 163.115 337.961Q164.891 334.426 166.737 330.928Q168.583 327.43 170.498 323.97Q172.414 320.509 174.398 317.088Q176.382 313.667 178.435 310.286Q180.487 306.905 182.607 303.566Q184.727 300.227 186.913 296.931Q189.099 293.634 191.351 290.383Q193.603 287.131 195.919 283.925Q198.235 280.719 200.615 277.56Q202.995 274.401 205.438 271.291Q207.881 268.18 210.386 265.119Q212.89 262.058 215.456 259.048Q218.021 256.037 220.646 253.079Q223.271 250.12 225.955 247.215Q228.639 244.31 231.38 241.459Q234.122 238.608 236.919 235.812Q239.717 233.017 242.571 230.278Q245.424 227.539 248.332 224.857Q251.239 222.176 254.2 219.553Q257.16 216.931 260.173 214.368L263.214 217.697Q260.199 220.263 257.236 222.889Q254.273 225.515 251.364 228.2Q248.454 230.885 245.6 233.629Q242.745 236.372 239.946 239.172Q237.147 241.972 234.405 244.828Q231.664 247.685 228.98 250.595Q226.296 253.506 223.671 256.47Q221.047 259.434 218.482 262.451Q215.918 265.467 213.415 268.535Q210.912 271.602 208.471 274.719Q206.03 277.836 203.653 281.002Q201.275 284.168 198.962 287.381Q196.649 290.594 194.401 293.853Q192.152 297.112 189.97 300.416Q187.789 303.719 185.674 307.066Q183.559 310.413 181.511 313.802Q179.464 317.191 177.486 320.62Q175.507 324.049 173.598 327.518Q171.689 330.986 169.851 334.493Q168.012 337.999 166.244 341.542Q164.476 345.084 162.78 348.662Q161.084 352.239 159.461 355.85Q157.837 359.461 156.287 363.104Q154.736 366.747 153.259 370.42Q151.782 374.093 150.38 377.796Q148.977 381.498 147.65 385.228Q146.322 388.958 145.07 392.714Q143.817 396.47 142.641 400.25Q141.464 404.03 140.364 407.834Q139.264 411.637 138.241 415.462Q137.218 419.286 136.272 423.131Q135.326 426.975 134.458 430.838C130.869 446.681 128.637 462.554 126.597 478.659C137.869 479.449 149.383 480.943 160.525 482.845Q160.858 479.57 161.25 476.301Q161.643 473.032 162.095 469.771Q162.547 466.51 163.058 463.258Q163.57 460.006 164.141 456.764Q164.711 453.521 165.341 450.29Q165.971 447.059 166.66 443.839Q167.348 440.62 168.096 437.414Q168.843 434.208 169.649 431.016Q170.454 427.824 171.318 424.647Q172.182 421.47 173.104 418.309Q174.025 415.149 175.005 412.006Q175.984 408.863 177.02 405.738Q178.056 402.613 179.15 399.508Q180.243 396.402 181.392 393.317Q182.542 390.232 183.748 387.169Q184.954 384.106 186.215 381.065Q187.477 378.024 188.793 375.007Q190.11 371.989 191.482 368.996Q192.853 366.004 194.279 363.036Q195.705 360.069 197.185 357.128Q198.665 354.187 200.198 351.274Q201.732 348.361 203.318 345.476Q204.904 342.591 206.543 339.736Q208.181 336.88 209.872 334.055Q211.562 331.23 213.304 328.436Q215.045 325.643 216.838 322.881Q218.63 320.12 220.473 317.391Q222.315 314.663 224.207 311.969Q226.099 309.275 228.04 306.615Q229.981 303.956 231.97 301.333Q233.959 298.709 235.995 296.123Q238.032 293.536 240.115 290.987Q242.55 287.965 245.051 284.998Q247.552 282.03 250.119 279.119Q252.685 276.208 255.315 273.355Q257.946 270.501 260.639 267.707Q263.332 264.912 266.086 262.178Q268.84 259.444 271.655 256.772Q274.469 254.1 277.342 251.49Q280.215 248.881 283.145 246.336Q286.075 243.791 289.06 241.312Q292.046 238.833 295.086 236.421Q298.126 234.008 301.219 231.664Q304.311 229.319 307.455 227.044Q310.599 224.769 313.793 222.564Q316.987 220.359 320.228 218.225Q323.47 216.092 326.759 214.031Q330.047 211.97 333.38 209.982Q336.713 207.994 340.09 206.081Q343.466 204.168 346.884 202.33Q350.302 200.492 353.76 198.73Q357.218 196.968 360.714 195.284Q364.211 193.599 367.743 191.993Q371.276 190.386 374.843 188.858Q378.411 187.33 382.011 185.882Q385.612 184.434 389.244 183.065Q392.875 181.697 396.536 180.41Q400.198 179.123 403.886 177.917Q407.575 176.711 411.29 175.587Q415.004 174.464 418.743 173.423Q422.482 172.382 426.243 171.424Q430.003 170.466 433.784 169.592Q437.566 168.718 441.365 167.928Q445.165 167.138 448.981 166.432C461.814 164.023 474.907 162.724 487.895 161.443C489.35 173.573 490.093 185.794 491.194 197.96C492.424 211.549 493.982 225.131 495.062 238.729Q504.022 238.148 512.994 237.786C512.629 199.308 511.134 160.855 511.002 122.374ZM495.397 243.215L497.949 276.3C498.461 282.405 498.621 288.917 500.052 294.871C443.532 298.619 386.829 327.461 349.644 369.946C318.548 405.475 297.218 452.696 295.677 500.175C298.094 500.534 301.559 500.601 303.218 502.612C303.34 502.76 303.434 502.93 303.542 503.089C303.105 504.215 303.467 503.895 302.424 504.364C300.383 505.279 297.64 504.67 295.478 504.429C295.291 508.544 294.313 516.338 296.007 520.073L296.082 520.505C296.971 525.931 297.126 531.547 297.764 537.023C298.665 544.755 300.219 552.517 301.947 560.105Q302.487 562.506 303.081 564.894Q303.676 567.283 304.324 569.657Q304.973 572.031 305.675 574.39Q306.378 576.749 307.134 579.091Q307.889 581.433 308.698 583.758Q309.507 586.082 310.369 588.388Q311.23 590.693 312.144 592.979Q313.058 595.264 314.023 597.528Q314.989 599.792 316.005 602.033Q317.022 604.274 318.089 606.492Q319.157 608.71 320.274 610.903Q321.392 613.095 322.559 615.262Q323.726 617.429 324.942 619.569Q326.158 621.709 327.422 623.82Q328.687 625.932 329.999 628.014Q331.311 630.096 332.67 632.148Q334.029 634.2 335.434 636.221Q336.84 638.241 338.291 640.229Q339.742 642.217 341.237 644.172Q342.733 646.126 344.273 648.046Q345.813 649.966 347.396 651.851Q348.979 653.735 350.605 655.583Q352.23 657.431 353.897 659.242Q355.564 661.052 357.272 662.825Q358.98 664.597 360.728 666.33Q362.475 668.063 364.262 669.755Q366.049 671.448 367.873 673.1Q369.698 674.751 371.56 676.361Q373.422 677.971 375.319 679.538Q377.217 681.105 379.15 682.628Q381.083 684.152 383.051 685.631Q385.018 687.11 387.018 688.544C412.792 707.299 442.512 720.9 474.024 726.335C486.011 728.403 498.263 729.259 510.389 730.063L510.346 733.81C510.521 744.862 511.334 756.244 510.945 767.265Q511.259 775.528 511.475 783.794Q519.449 783.58 527.425 783.548C526.623 774.306 526.61 764.884 526.255 755.609C525.817 744.199 525.113 732.786 524.806 721.375C570.679 716.842 611.177 702.249 646.567 672.184C693.435 632.37 715.035 579.949 720.014 519.612C723.141 520.078 726.335 520.322 729.481 520.662L729.495 508.163C729.029 452.71 703.85 398.015 664.976 359.079Q663.139 357.203 661.257 355.373Q659.375 353.542 657.448 351.759Q655.521 349.976 653.551 348.24Q651.581 346.505 649.569 344.819Q647.557 343.132 645.504 341.496Q643.451 339.859 641.358 338.274Q639.265 336.689 637.134 335.155Q635.003 333.622 632.835 332.142Q630.667 330.661 628.463 329.235Q626.259 327.808 624.021 326.436Q621.782 325.064 619.511 323.748Q617.239 322.431 614.936 321.171Q612.633 319.911 610.299 318.708Q607.966 317.505 605.603 316.36Q603.241 315.215 600.851 314.128Q598.461 313.041 596.045 312.013Q593.629 310.986 591.188 310.018Q588.748 309.05 586.284 308.143Q583.821 307.235 581.336 306.389Q578.85 305.542 576.345 304.757Q573.84 303.972 571.316 303.249Q568.792 302.525 566.251 301.865Q563.711 301.204 561.154 300.606Q558.598 300.007 556.028 299.472Q553.457 298.937 550.875 298.466Q548.292 297.994 545.698 297.586Q543.105 297.178 540.502 296.834Q537.899 296.49 535.289 296.21Q532.678 295.931 530.062 295.715Q527.445 295.5 524.824 295.349Q522.203 295.198 519.579 295.111Q516.955 295.025 514.33 295.003C514.747 277.592 513.664 260.069 513.438 242.647L495.397 243.215ZM478.017 166.699C383.903 177.691 299.883 222.464 240.873 297.187C197.799 351.73 173.286 414.472 164.664 483.21Q175.284 484.47 185.886 485.876C203.981 488.061 222.425 489.949 240.384 493.032C241.186 476.348 244.344 459.539 248.667 443.426Q249.919 438.657 251.341 433.937Q252.764 429.217 254.357 424.551Q255.949 419.885 257.709 415.28Q259.469 410.675 261.393 406.136Q263.318 401.597 265.406 397.131Q267.493 392.665 269.741 388.277Q271.988 383.889 274.392 379.584Q276.797 375.28 279.355 371.066Q281.913 366.852 284.622 362.732Q287.33 358.613 290.186 354.594Q293.041 350.575 296.04 346.662Q299.039 342.749 302.177 338.947Q305.315 335.144 308.589 331.458Q311.862 327.771 315.266 324.205Q318.671 320.639 322.201 317.199Q325.732 313.758 329.385 310.447C374.955 268.973 429.934 245.431 490.942 238.756C488.764 222.795 487.623 206.539 486.222 190.484C485.526 182.508 485.468 174.034 483.617 166.233C481.786 166.367 479.815 166.361 478.017 166.699ZM490.147 243.822C422.203 249.028 354.65 284.803 310.421 336.321Q307.56 339.624 304.806 343.016Q302.052 346.408 299.408 349.886Q296.763 353.364 294.231 356.925Q291.699 360.486 289.282 364.126Q286.865 367.766 284.565 371.481Q282.265 375.196 280.085 378.983Q277.905 382.77 275.847 386.624Q273.789 390.478 271.855 394.396Q269.921 398.314 268.113 402.292Q266.304 406.27 264.624 410.303Q262.944 414.337 261.393 418.421Q259.843 422.506 258.423 426.639Q257.004 430.771 255.717 434.947Q254.43 439.122 253.277 443.337Q252.124 447.551 251.106 451.8Q250.088 456.05 249.206 460.329C246.942 471.233 244.917 482.432 244.783 493.591C248.007 493.993 251.415 494.198 254.59 494.838C266.79 496.304 279.002 498.26 291.25 499.235Q291.419 496.523 291.654 493.817Q291.89 491.11 292.192 488.41Q292.495 485.71 292.863 483.018Q293.232 480.326 293.667 477.644Q294.103 474.962 294.604 472.292Q295.105 469.622 295.672 466.965Q296.239 464.308 296.871 461.665Q297.503 459.023 298.201 456.397Q298.898 453.771 299.66 451.163Q300.422 448.555 301.248 445.967Q302.074 443.379 302.963 440.811Q303.853 438.244 304.806 435.7Q305.758 433.155 306.774 430.635Q307.789 428.115 308.866 425.621Q309.943 423.127 311.081 420.66Q312.219 418.193 313.418 415.754Q314.617 413.316 315.876 410.908Q317.134 408.501 318.452 406.125Q319.769 403.748 321.145 401.406Q322.521 399.063 323.954 396.755Q325.388 394.446 326.877 392.174Q328.367 389.902 329.912 387.668Q331.458 385.433 333.058 383.237Q334.658 381.041 336.311 378.886Q337.965 376.73 339.672 374.616Q341.378 372.501 343.136 370.43Q344.894 368.358 346.703 366.331Q348.511 364.304 350.369 362.321Q352.227 360.339 354.134 358.403Q356.04 356.468 357.994 354.579Q359.947 352.691 361.947 350.852Q363.947 349.012 365.991 347.223C402.419 314.784 447.263 295.85 495.565 290.738C494.5 283.738 492.722 247.02 490.605 243.838L490.147 243.822ZM244.225 498.089C243.992 502.99 243.261 508.976 244.394 513.76Q267.551 516.746 290.797 518.929C291.207 514.023 290.891 508.865 290.897 503.93C275.319 502.235 259.772 500.055 244.225 498.089ZM734.871 508.446C734.672 512.564 734.393 516.696 734.464 520.82C749.72 523.252 765.14 524.792 780.432 527.037C780.436 521.768 780.698 516.358 780.268 511.11C765.168 510.085 750.015 508.545 734.871 508.446ZM511.382 884.845C511.738 878.898 511.371 872.695 511.38 866.72L511.491 830.319L511.546 803.518C511.541 798.56 511.941 793.167 511.152 788.287C509.511 799.564 510.377 819.267 510.31 831.413L510.242 862.83C510.246 869.973 509.832 877.354 510.964 884.42L511.382 884.845ZM510.945 767.265C511.334 756.244 510.521 744.862 510.346 733.81C508.697 736.16 509.091 761.969 510.012 765.712C510.171 766.358 510.535 766.765 510.945 767.265Z"/>
	<path d="M510.945 767.265C510.535 766.765 510.171 766.358 510.012 765.712C509.091 761.969 508.697 736.16 510.346 733.81C510.521 744.862 511.334 756.244 510.945 767.265Z"/>
	<path d="M511.382 884.845L510.964 884.42C509.832 877.354 510.246 869.973 510.242 862.83L510.31 831.413C510.377 819.267 509.511 799.564 511.152 788.287C511.941 793.167 511.541 798.56 511.546 803.518L511.491 830.319L511.38 866.72C511.371 872.695 511.738 878.898 511.382 884.845Z"/>
	<path fill="#FEC86C" d="M518.001 243.138C532.846 244.215 547.596 245.395 562.221 248.276Q564.956 248.821 567.679 249.423Q570.402 250.024 573.112 250.682Q575.822 251.34 578.518 252.054Q581.214 252.768 583.894 253.537Q586.575 254.307 589.239 255.131Q591.903 255.956 594.549 256.836Q597.196 257.716 599.823 258.65Q602.451 259.585 605.058 260.573Q607.666 261.562 610.252 262.604Q612.839 263.647 615.404 264.743Q617.968 265.838 620.509 266.987Q623.05 268.136 625.567 269.337Q628.084 270.538 630.576 271.79Q633.067 273.043 635.532 274.348Q637.997 275.652 640.435 277.007Q642.872 278.362 645.281 279.767Q647.69 281.172 650.069 282.626Q652.448 284.081 654.797 285.585Q657.146 287.089 659.463 288.64Q661.78 290.192 664.064 291.792Q666.348 293.392 668.599 295.038Q670.85 296.685 673.066 298.378Q675.282 300.07 677.463 301.809Q679.644 303.547 681.788 305.33Q683.932 307.113 686.039 308.94Q688.146 310.768 690.214 312.638Q692.283 314.508 694.312 316.421Q696.341 318.334 698.331 320.288Q700.32 322.243 702.268 324.238Q704.217 326.233 706.123 328.268Q708.03 330.303 709.894 332.378Q711.758 334.452 713.579 336.564Q716.727 340.192 719.746 343.928Q722.764 347.664 725.65 351.504Q728.535 355.344 731.284 359.283Q734.033 363.222 736.641 367.255Q739.25 371.288 741.715 375.411Q744.18 379.533 746.499 383.739Q748.818 387.946 750.987 392.231Q753.157 396.517 755.174 400.876Q757.192 405.234 759.055 409.662Q760.918 414.089 762.624 418.579Q764.331 423.069 765.878 427.616Q767.426 432.163 768.812 436.762Q770.199 441.36 771.423 446.005Q772.647 450.65 773.708 455.334Q774.768 460.019 775.663 464.738Q776.557 469.457 777.286 474.205C779.126 486.498 778.883 498.834 780.268 511.11C765.168 510.085 750.015 508.545 734.871 508.446C730.548 440.934 706.531 387.595 655.314 342.66C618.327 310.211 568.348 290.999 519.24 289.473L518.001 243.138Z"/>
	<path fill="#FEC86C" d="M244.394 513.76Q267.551 516.746 290.797 518.929C291.644 527.707 291.804 536.408 293.175 545.158Q293.798 549.131 294.562 553.08Q295.327 557.028 296.232 560.947Q297.137 564.866 298.181 568.75Q299.225 572.634 300.408 576.478Q301.59 580.322 302.909 584.121Q304.228 587.921 305.682 591.671Q307.136 595.421 308.722 599.116Q310.309 602.812 312.027 606.448Q313.745 610.085 315.591 613.658Q317.438 617.231 319.411 620.735Q321.384 624.24 323.481 627.672Q325.578 631.104 327.796 634.459Q330.014 637.814 332.351 641.087Q334.687 644.361 337.139 647.549Q339.591 650.737 342.155 653.835Q344.72 656.933 347.393 659.938Q348.905 661.649 350.451 663.328Q351.998 665.008 353.578 666.656Q355.159 668.303 356.772 669.919Q358.386 671.534 360.032 673.116Q361.678 674.698 363.356 676.247Q365.034 677.795 366.743 679.309Q368.452 680.823 370.191 682.302Q371.931 683.78 373.7 685.223Q375.469 686.667 377.268 688.073Q379.066 689.48 380.892 690.85Q382.719 692.22 384.573 693.552Q386.427 694.885 388.308 696.179Q390.188 697.474 392.095 698.729Q394.002 699.985 395.934 701.202Q397.865 702.419 399.822 703.596Q401.778 704.774 403.758 705.911Q405.737 707.048 407.74 708.145Q409.742 709.242 411.767 710.297Q413.791 711.353 415.837 712.367Q417.882 713.382 419.948 714.354Q422.013 715.327 424.098 716.257Q426.183 717.187 428.287 718.075Q430.39 718.963 432.512 719.807Q434.633 720.652 436.771 721.453Q438.908 722.255 441.062 723.012Q443.216 723.77 445.385 724.484Q447.553 725.198 449.736 725.867Q451.919 726.536 454.115 727.161Q456.311 727.786 458.519 728.366Q460.727 728.946 462.947 729.481Q465.166 730.016 467.396 730.506Q469.626 730.996 471.866 731.44C483.166 733.59 494.479 734.436 505.947 735.125L506.505 783.531C442.617 778.887 386.785 760.237 338.37 717.087Q336.137 715.119 333.946 713.104Q331.755 711.09 329.608 709.028Q327.461 706.967 325.358 704.86Q323.255 702.754 321.198 700.602Q319.141 698.451 317.131 696.256Q315.12 694.062 313.157 691.824Q311.194 689.587 309.279 687.308Q307.364 685.03 305.498 682.711Q303.632 680.391 301.817 678.033Q300.001 675.674 298.236 673.278Q296.471 670.881 294.758 668.447Q293.045 666.013 291.384 663.543Q289.723 661.073 288.116 658.568Q286.508 656.063 284.955 653.524Q283.401 650.985 281.902 648.414Q280.403 645.842 278.96 643.239Q277.516 640.636 276.128 638.003Q274.741 635.37 273.41 632.707Q272.079 630.045 270.805 627.355Q269.531 624.665 268.315 621.948Q267.1 619.231 265.942 616.489Q264.784 613.747 263.686 610.981Q262.587 608.214 261.548 605.425Q260.509 602.636 259.529 599.825Q258.55 597.015 257.631 594.183Q256.712 591.352 255.854 588.502Q254.996 585.652 254.199 582.785Q253.401 579.917 252.666 577.033Q251.93 574.149 251.257 571.249Q250.583 568.35 249.971 565.437Q249.36 562.524 248.811 559.599Q248.261 556.673 247.775 553.737C245.637 540.522 245.175 527.104 244.394 513.76Z"/>
	<path fill="#FEC86C" d="M296.007 520.073C299.145 520.382 302.382 520.557 305.476 521.145Q305.574 523.717 305.736 526.287Q305.897 528.856 306.121 531.42Q306.346 533.985 306.633 536.543Q306.919 539.101 307.269 541.652Q307.619 544.202 308.031 546.743Q308.443 549.284 308.917 551.815Q309.391 554.345 309.927 556.863Q310.463 559.381 311.06 561.885Q311.658 564.389 312.317 566.877Q312.975 569.366 313.695 571.838Q314.414 574.309 315.194 576.763Q315.974 579.216 316.813 581.649Q317.653 584.083 318.552 586.495Q319.451 588.907 320.409 591.297Q321.367 593.686 322.383 596.052Q323.399 598.417 324.473 600.756Q325.547 603.096 326.677 605.409Q327.808 607.721 328.995 610.006Q330.182 612.29 331.425 614.544Q332.668 616.799 333.965 619.022Q335.263 621.246 336.615 623.436Q337.966 625.627 339.371 627.784Q340.776 629.942 342.233 632.064Q343.691 634.186 345.2 636.271Q346.709 638.357 348.268 640.405Q349.828 642.453 351.437 644.463Q353.046 646.472 354.704 648.441Q356.362 650.41 358.068 652.338Q359.774 654.266 361.526 656.152Q363.279 658.038 365.077 659.88Q366.875 661.722 368.718 663.52Q370.561 665.317 372.447 667.069C410.792 702.299 458.005 720.474 509.981 721.48C510.221 724.356 510.42 727.174 510.389 730.063C498.263 729.259 486.011 728.403 474.024 726.335C442.512 720.9 412.792 707.299 387.018 688.544Q385.018 687.11 383.051 685.631Q381.083 684.152 379.15 682.628Q377.217 681.105 375.319 679.538Q373.422 677.971 371.56 676.361Q369.698 674.751 367.873 673.1Q366.049 671.448 364.262 669.755Q362.475 668.063 360.728 666.33Q358.98 664.597 357.272 662.825Q355.564 661.052 353.897 659.242Q352.23 657.431 350.605 655.583Q348.979 653.735 347.396 651.851Q345.813 649.966 344.273 648.046Q342.733 646.126 341.238 644.172Q339.742 642.217 338.291 640.229Q336.84 638.241 335.434 636.221Q334.029 634.2 332.67 632.148Q331.311 630.096 329.999 628.014Q328.687 625.932 327.422 623.82Q326.158 621.709 324.942 619.569Q323.726 617.429 322.559 615.262Q321.392 613.095 320.274 610.903Q319.157 608.71 318.089 606.492Q317.022 604.274 316.005 602.033Q314.989 599.792 314.023 597.528Q313.058 595.264 312.144 592.978Q311.23 590.693 310.369 588.388Q309.507 586.082 308.698 583.758Q307.889 581.433 307.134 579.091Q306.378 576.749 305.675 574.39Q304.973 572.031 304.324 569.657Q303.676 567.283 303.081 564.894Q302.487 562.506 301.947 560.105C300.219 552.517 298.665 544.755 297.764 537.023C297.126 531.547 296.971 525.931 296.082 520.505L296.007 520.073Z"/>
	<path fill="#FEC86C" d="M514.33 295.003Q516.955 295.025 519.579 295.111Q522.203 295.198 524.824 295.349Q527.445 295.5 530.062 295.715Q532.678 295.931 535.289 296.21Q537.899 296.49 540.502 296.834Q543.105 297.178 545.698 297.586Q548.292 297.994 550.875 298.466Q553.457 298.937 556.028 299.472Q558.598 300.007 561.154 300.606Q563.711 301.204 566.251 301.865Q568.792 302.525 571.316 303.249Q573.84 303.972 576.345 304.757Q578.85 305.542 581.336 306.389Q583.821 307.235 586.284 308.143Q588.748 309.05 591.188 310.018Q593.629 310.986 596.045 312.013Q598.461 313.041 600.851 314.128Q603.241 315.215 605.603 316.36Q607.966 317.505 610.299 318.708Q612.633 319.911 614.936 321.171Q617.239 322.431 619.511 323.748Q621.782 325.064 624.021 326.436Q626.259 327.808 628.463 329.235Q630.667 330.661 632.835 332.142Q635.003 333.622 637.134 335.155Q639.265 336.689 641.358 338.274Q643.451 339.859 645.504 341.496Q647.557 343.132 649.569 344.819Q651.581 346.505 653.551 348.24Q655.521 349.976 657.448 351.759Q659.375 353.542 661.257 355.373Q663.139 357.203 664.976 359.079C703.85 398.015 729.029 452.71 729.495 508.163L719.972 507.475Q719.919 505.024 719.809 502.575Q719.699 500.126 719.531 497.68Q719.364 495.234 719.14 492.793Q718.916 490.352 718.635 487.917Q718.353 485.481 718.016 483.053Q717.678 480.625 717.283 478.205Q716.889 475.786 716.438 473.376Q715.987 470.966 715.48 468.568Q714.974 466.169 714.411 463.783Q713.848 461.397 713.23 459.025Q712.612 456.652 711.939 454.295Q711.265 451.938 710.537 449.597Q709.809 447.256 709.026 444.933Q708.244 442.609 707.407 440.305Q706.571 438.001 705.681 435.716Q704.791 433.432 703.848 431.169Q702.905 428.907 701.909 426.666Q700.913 424.426 699.866 422.21Q698.818 419.993 697.719 417.802Q696.62 415.611 695.47 413.445Q694.32 411.28 693.12 409.143Q691.92 407.005 690.671 404.896Q689.421 402.786 688.123 400.707Q686.824 398.628 685.477 396.579Q684.131 394.53 682.737 392.514Q681.343 390.497 679.902 388.514Q678.462 386.53 676.975 384.581Q675.488 382.631 673.957 380.717Q672.425 378.803 670.849 376.925Q669.273 375.047 667.654 373.207Q666.035 371.366 664.373 369.564Q662.711 367.761 661.008 365.998Q659.235 364.153 657.417 362.352Q655.599 360.551 653.737 358.796Q651.875 357.041 649.969 355.333Q648.063 353.626 646.116 351.966Q644.169 350.306 642.18 348.695Q640.192 347.084 638.164 345.523Q636.137 343.962 634.071 342.452Q632.005 340.943 629.902 339.485Q627.799 338.027 625.66 336.622Q623.521 335.217 621.348 333.865Q619.175 332.514 616.969 331.217Q614.763 329.921 612.526 328.679Q610.288 327.438 608.02 326.252Q605.753 325.067 603.456 323.939Q601.159 322.81 598.835 321.74Q596.511 320.669 594.161 319.656Q591.811 318.643 589.437 317.69Q587.062 316.736 584.665 315.842Q582.267 314.947 579.848 314.113Q577.429 313.279 574.99 312.505Q572.551 311.731 570.093 311.019Q567.635 310.306 565.161 309.655Q562.686 309.003 560.196 308.414Q557.706 307.825 555.202 307.297Q552.698 306.77 550.182 306.306Q547.665 305.841 545.138 305.439Q542.611 305.037 540.075 304.699Q537.538 304.36 534.994 304.084Q532.45 303.809 529.9 303.597Q527.35 303.385 524.795 303.237Q522.241 303.088 519.683 303.004Q517.126 302.919 514.567 302.898Q514.354 298.953 514.33 295.003Z"/>
	<path d="M556.81 395.768C561.824 395.387 566.678 395.856 571.654 396.465C564.469 398.667 555.763 397.504 550.26 403.529C548.464 405.496 546.852 408.031 546.485 410.707C545.033 421.292 545.633 431.859 545.677 442.496L545.527 481.172L545.379 529.161C545.297 539.619 544.777 550.231 545.485 560.669C545.761 564.725 546.237 569.406 549.629 572.151C556.638 577.823 594.882 575.607 605 574.89C628.104 573.252 630.389 564.027 632.852 543.343C633.15 540.837 633.25 537.719 634.975 535.722L635.624 536.039C636.815 539.989 636.626 574.384 636.358 580.222L635.527 580.721C607.913 580.273 580.194 580.399 552.575 580.583C537.741 580.682 522.919 581.661 508.085 580.841C514.227 578.327 522.191 577.234 525.626 570.839C527.362 567.607 527.519 560.999 527.681 557.341C527.99 550.389 527.654 543.366 527.599 536.405L527.54 503.982L527.523 451.05C527.53 440.369 529.293 416.503 526.133 407.216C523.958 400.826 513.835 398.558 508.283 396.06C524.454 395.525 540.643 396.356 556.81 395.768Z"/>
	<path d="M419.62 392.712C433.327 390.922 456.951 396.025 469.512 401.064C468.678 408.495 468.522 433.491 465.841 438.286C462.288 431.459 463.8 422.485 459.192 415.484C453.488 406.818 443.449 401.276 433.463 399.194C422.573 396.924 410.135 398.741 400.835 405.036C394.133 409.573 389.741 416.882 388.283 424.787C380.251 468.306 456.638 479.594 478.148 511.264C484.964 521.3 486.549 533.858 484.226 545.63C481.97 557.066 475.585 566.286 465.84 572.683C446.991 585.057 422.279 583.984 401.123 579.647C388.9 576.943 375.951 572.49 365.425 565.671C365.983 558.917 367.623 522.132 368.492 519.786L369.286 519.499C374.28 523.963 367.727 546.546 385.181 561.525C397.44 572.046 415.65 577.066 431.619 575.837C442.301 575.015 453.521 570.943 460.534 562.521Q461.039 561.915 461.514 561.284Q461.989 560.653 462.432 560Q462.875 559.347 463.286 558.672Q463.696 557.998 464.072 557.304Q464.449 556.61 464.791 555.899Q465.132 555.187 465.438 554.459Q465.745 553.732 466.014 552.99Q466.284 552.248 466.517 551.494Q466.75 550.74 466.945 549.975Q467.14 549.21 467.298 548.436Q467.455 547.663 467.574 546.882Q467.692 546.102 467.772 545.317Q467.853 544.531 467.894 543.743Q467.935 542.955 467.937 542.165Q467.939 541.376 467.903 540.587Q467.866 539.799 467.79 539.013C465.106 512.437 436.475 501.202 415.884 490.521C407.074 485.951 398.492 481.117 390.789 474.796C379.531 465.559 371.017 454.277 369.645 439.391C368.672 428.832 371.13 418.815 378.084 410.671C388.749 398.182 403.798 393.94 419.62 392.712Z"/>
</svg>
